<svg id="Capa_1" enable-background="new 0 0 512 512" height="512" viewBox="0 0 512 512" width="512" xmlns="http://www.w3.org/2000/svg"><g><path d="m89.465 343.722h395.434c10.825 0 19.601-8.776 19.601-19.601v-52.614c0-13.59-7.573-26.027-19.62-32.318-24.575-12.832-69.883-30.907-122.338-25.159-14.147-13.224-26.461-24.528-36.842-33.937-25.227-22.862-57.547-36.35-91.543-38.17l-34.91-1.868c-30.868-1.652-61.599 6.211-87.539 23.025-16.076 10.421-32.513 24.361-43.916 42.281h-30.858c-6.538 0-11.838 5.3-11.838 11.838v58.599h-14.579c-1.666 0-3.017 1.351-3.017 3.017v45.881c0 1.436 1.012 2.673 2.42 2.958z" fill="#d6e0f4"/><path d="m484.88 239.19c-23.686-12.368-66.636-29.598-116.679-25.681 37.277 2.838 68.475 15.807 87.387 25.681 12.047 6.29 19.62 18.727 19.62 32.318v52.614c0 10.825-8.776 19.601-19.601 19.601h29.292c10.825 0 19.601-8.776 19.601-19.601v-52.614c0-13.591-7.573-26.028-19.62-32.318z" fill="#b8c9ea"/><path d="m25.096 262.642h24.716c6.047 0 10.949-4.902 10.949-10.949v-6.456c0-2.249-.692-4.443-1.983-6.285l-23.458-33.467c-5.772.789-10.224 5.726-10.224 11.716z" fill="#e27f86"/><path d="m7.5 308.67v16.028c0 1.436 1.012 2.673 2.42 2.958l79.545 16.067h395.434c10.825 0 19.601-8.776 19.601-19.601v-15.452z" fill="#a4ace3"/><path d="m475.208 324.121c0 10.825-8.776 19.601-19.601 19.601h29.292c.677 0 1.345-.034 2.004-.101 1.318-.134 2.597-.398 3.825-.78 1.841-.573 3.566-1.41 5.13-2.466 5.214-3.522 8.642-9.488 8.642-16.254v-15.451h-29.292z" fill="#8a94db"/><path d="m362.543 214.032c-14.187-13.261-26.53-24.592-36.93-34.016-25.198-22.834-57.5-36.273-91.456-38.09l-21.339-1.142c-22.319 2.487-43.899 9.979-62.904 22.299-11.987 7.77-24.175 17.497-34.327 29.372-4.438 5.191-.992 13.199 5.833 13.43z" fill="#717ed4"/><g transform="matrix(.788 -.615 .615 .788 -177.617 142.929)"><ellipse cx="118.847" cy="329.517" fill="#514898" rx="42.646" ry="42.646"/><ellipse cx="118.847" cy="329.517" fill="#d5d9f2" rx="17.023" ry="17.023"/></g><g transform="matrix(.788 -.615 .615 .788 -114.502 326.323)"><ellipse cx="416.849" cy="329.517" fill="#514898" rx="42.646" ry="42.646"/><ellipse cx="416.849" cy="329.517" fill="#d5d9f2" rx="17.023" ry="17.023"/></g><path d="m453.731 265.436c0 9.975 16.53 21.434 36.92 21.434 4.899 0 9.571-.403 13.849-1.127v-14.236c0-5.215-1.124-10.255-3.179-14.848-3.379-.426-6.96-.657-10.671-.657-20.39 0-36.919.91-36.919 9.434z" fill="#e5936a"/><path d="m503.684 263.863c-.53-2.463-1.431-5.121-2.362-7.203-3.379-.426-6.96-.657-10.671-.657-6.813 0-13.191.104-18.669.557 2.084 4.62 3.226 9.695 3.226 14.948v13.099c4.7 1.421 9.928 2.264 15.443 2.264 4.899 0 9.571-.403 13.849-1.127v-14.236c0-2.605-.357-5.516-.816-7.645z" fill="#e27c48"/><g><path d="m488.352 232.546c-14.363-7.5-29.437-13.586-44.802-18.089-3.975-1.162-8.142 1.113-9.307 5.088s1.113 8.142 5.088 9.307c14.426 4.228 28.583 9.944 42.079 16.991 1.493.779 2.887 1.687 4.196 2.685-8.189.082-16.242.426-22.486 1.634-13.958 2.701-16.888 9.799-16.888 15.277 0 15.413 20.757 28.934 44.42 28.934 2.141 0 4.256-.088 6.349-.228v7.03h-38.813c-9.049-13.155-24.2-21.802-41.338-21.802s-32.289 8.647-41.337 21.802h-215.328c-9.049-13.155-24.2-21.802-41.338-21.802s-32.289 8.647-41.337 21.802h-62.51v-17.87h10.1c4.142 0 7.5-3.357 7.5-7.5v-5.66h17.212c10.173 0 18.45-8.276 18.45-18.449v-6.456c0-3.809-1.156-7.47-3.342-10.589l-15.27-21.785h18.14c2.563 0 4.95-1.31 6.327-3.472 9.358-14.697 23.379-28.16 41.672-40.015 11.443-7.416 23.815-12.989 36.782-16.688-2.283 1.311-4.533 2.672-6.737 4.101-14.321 9.283-26.416 19.643-35.948 30.791-3.959 4.631-4.897 10.961-2.449 16.521 2.431 5.52 7.691 9.075 13.729 9.279 0 0 241.267 8.151 241.339 8.152.072 0 .144-.006.217-.008.205-.005.409-.013.609-.034l.025-.001c14.056-1.539 28.557-1.386 43.103.455 4.114.525 7.862-2.39 8.382-6.499s-2.39-7.862-6.5-8.382c-14.525-1.839-29.029-2.117-43.166-.83-11.833-11.043-23.407-21.695-34.44-31.697-26.438-23.954-60.594-38.196-96.174-40.102l-34.912-1.87c-33.017-1.762-64.839 6.613-92.019 24.226-18.694 12.114-33.433 25.917-43.868 41.074-24.944.108-27.163-.231-29.798.252-9.253 1.435-16.365 9.435-16.365 19.088v45.352c0 .029-.004.058-.004.087s.004.058.004.087v5.573h-7.08c-5.801 0-10.52 4.715-10.52 10.51v45.891c0 4.998 3.557 9.332 8.435 10.302l63.766 12.882c7.346 18.587 25.479 31.777 46.646 31.777 19.881 0 37.096-11.629 45.202-28.441h27.662c4.142 0 7.5-3.357 7.5-7.5s-3.358-7.5-7.5-7.5h-23.178c.295-2.195.461-4.43.461-6.705 0-4.621-.641-9.093-1.817-13.345h201.344c-1.176 4.252-1.817 8.724-1.817 13.345 0 2.275.167 4.51.461 6.705h-140.454c-4.142 0-7.5 3.357-7.5 7.5s3.358 7.5 7.5 7.5h144.938c8.106 16.813 25.321 28.441 45.201 28.441 19.881 0 37.096-11.629 45.202-28.441h22.85c14.943 0 27.1-12.157 27.1-27.1v-52.61c-.001-16.425-9.063-31.356-23.649-38.971zm-367.187-34.49c-.17-.385.021-.607.122-.727 21.064-24.635 53.969-44.655 91.824-49.022l15.644.838c2.493 9.235 5.863 31.47-.042 52.861l-107.04-3.617c-.172-.006-.367-.012-.508-.333zm221.566 7.803-98.697-3.335c4.521-19.328 3.048-39.271.403-52.117 28.254 3.709 54.995 16.007 76.226 35.244 7.151 6.483 14.534 13.245 22.068 20.208zm-289.469 39.38v6.456c0 1.902-1.547 3.449-3.45 3.449h-17.212v-37.939c0-.68.171-1.315.45-1.889l19.587 27.944c.408.582.625 1.267.625 1.979zm-38.262 75.791v-4.855h55.518c-1.424 5.151-2.007 10.372-1.757 15.716zm103.847 43.635c-19.379 0-35.146-15.767-35.146-35.146s15.767-35.146 35.146-35.146c19.38 0 35.147 15.767 35.147 35.146s-15.767 35.146-35.147 35.146zm371.804-85.293c-16.952 0-28.065-8.688-29.304-13.154 3.105-1.802 12.948-2.714 29.304-2.714 1.773 0 3.534.063 5.274.177.704 2.511 1.075 5.141 1.075 7.833v7.607c-2.078.166-4.199.251-6.349.251zm-73.802 85.293c-19.379 0-35.146-15.767-35.146-35.146s15.767-35.146 35.146-35.146c19.38 0 35.147 15.767 35.147 35.146s-15.767 35.146-35.147 35.146zm68.051-28.441h-18.366c.295-2.195.461-4.43.461-6.705 0-4.621-.641-9.093-1.817-13.345h31.822v7.95c0 6.672-5.428 12.1-12.1 12.1z"/><path d="m118.847 304.996c-13.522 0-24.523 11.001-24.523 24.522 0 13.522 11.001 24.523 24.523 24.523s24.523-11.001 24.523-24.523c0-13.521-11.001-24.522-24.523-24.522zm0 34.046c-5.251 0-9.523-4.272-9.523-9.523s4.272-9.522 9.523-9.522 9.523 4.271 9.523 9.522-4.272 9.523-9.523 9.523z"/><path d="m416.849 304.996c-13.522 0-24.523 11.001-24.523 24.522 0 13.522 11.001 24.523 24.523 24.523s24.523-11.001 24.523-24.523c0-13.521-11.001-24.522-24.523-24.522zm0 34.046c-5.251 0-9.523-4.272-9.523-9.523s4.272-9.522 9.523-9.522 9.523 4.271 9.523 9.522-4.272 9.523-9.523 9.523z"/><path d="m256 228.686c-4.142 0-7.5 3.357-7.5 7.5s3.358 7.5 7.5 7.5h5.2c4.142 0 7.5-3.357 7.5-7.5s-3.358-7.5-7.5-7.5z"/><path d="m143.907 228.686c-4.142 0-7.5 3.357-7.5 7.5s3.358 7.5 7.5 7.5h5.2c4.142 0 7.5-3.357 7.5-7.5s-3.358-7.5-7.5-7.5z"/></g></g></svg>